<?xml version="1.0" encoding="utf-8" standalone="no"?><!DOCTYPE svg PUBLIC "-//W3C//DTD SVG 20010904//EN" "http://www.w3.org/TR/2001/REC-SVG-20010904/DTD/svg10.dtd"><svg xmlns="http://www.w3.org/2000/svg" width="698" height="384" xmlns:xlink="http://www.w3.org/1999/xlink"><source><![CDATA[
编辑器->github: push
github->deploy.sh: webhook
Note right of deploy.sh:拉取到本地仓库
deploy.sh->本地仓库:
本地仓库->网站目录:
浏览器->网站目录:
Note right of 网站目录:nginx访问

]]></source><desc></desc><defs><marker viewBox="0 0 5 5" markerWidth="5" markerHeight="5" orient="auto" refX="5" refY="2.5" id="markerArrowBlock"><path d="M 0 0 L 5 2.5 L 0 5 z"></path></marker><marker viewBox="0 0 9.6 16" markerWidth="4" markerHeight="16" orient="auto" refX="9.6" refY="8" id="markerArrowOpen"><path d="M 9.6,8 1.92,16 0,13.7 5.76,8 0,2.286 1.92,0 9.6,8 z"></path></marker></defs><g class="title"></g><g class="actor"><path d="M10,20C26.7,17.2 21.1,22.8 79.6,20.0C77.9,51.6 81.4,52.8 79.6,63.2C40.2,60.4 40.2,66.0 10.0,63.2C8.3,37.0 11.7,46.2 10.0,20.0" stroke="#000000" fill="#ffffff" style="stroke-width: 2;"></path><text x="20.8125" y="46.8125" style="font-size: 16px; font-family: danielbd;"><tspan x="20">编辑器</tspan></text></g><g class="actor"><path d="M10,320.875C62.9,318.1 34.4,323.7 79.6,320.9C81.4,353.7 77.9,338.7 79.6,364.1C21.1,361.3 47.4,366.9 10.0,364.1C11.7,327.8 8.3,354.6 10.0,320.9" stroke="#000000" fill="#ffffff" style="stroke-width: 2;"></path><text x="20.8125" y="347.6875" style="font-size: 16px; font-family: danielbd;"><tspan x="20">编辑器</tspan></text></g><path d="M44.8,63.2C34.5,279.6 55.1,104.4 44.8,320.9" stroke="#000000" fill="none" style="stroke-width: 2;"></path><g class="actor"><path d="M99.625,20C154.0,16.9 123.1,23.1 177.4,20.0C179.1,56.3 175.7,26.9 177.4,63.2C156.2,60.1 149.5,66.3 99.6,63.2C97.9,50.5 101.4,47.0 99.6,20.0" stroke="#000000" fill="#ffffff" style="stroke-width: 2;"></path><text x="114.4375" y="44.40625" style="font-size: 16px; font-family: danielbd;"><tspan x="109.625">github</tspan></text></g><g class="actor"><path d="M99.625,320.875C165.0,324.0 128.0,317.8 177.4,320.9C175.7,327.8 179.1,352.9 177.4,364.1C165.0,367.2 158.7,361.0 99.6,364.1C101.4,346.3 97.9,333.6 99.6,320.9" stroke="#000000" fill="#ffffff" style="stroke-width: 2;"></path><text x="114.4375" y="345.28125" style="font-size: 16px; font-family: danielbd;"><tspan x="109.625">github</tspan></text></g><path d="M138.5,63.2C148.8,259.0 128.2,184.4 138.5,320.9" stroke="#000000" fill="none" style="stroke-width: 2;"></path><g class="actor"><path d="M197.40625,20C264.8,23.9 255.9,16.1 294.9,20.0C293.2,35.4 296.7,26.9 294.9,63.2C220.8,67.1 213.0,59.3 197.4,63.2C199.1,26.9 195.7,30.4 197.4,20.0" stroke="#000000" fill="#ffffff" style="stroke-width: 2;"></path><text x="207.40625" y="44.40625" style="font-size: 16px; font-family: danielbd;"><tspan x="207.40625">deploy.sh</tspan></text></g><g class="actor"><path d="M197.40625,320.875C213.0,317.0 257.7,324.8 294.9,320.9C293.2,354.5 296.7,353.7 294.9,364.1C244.1,368.0 220.8,360.2 197.4,364.1C195.7,347.2 199.1,351.7 197.4,320.9" stroke="#000000" fill="#ffffff" style="stroke-width: 2;"></path><text x="207.40625" y="345.28125" style="font-size: 16px; font-family: danielbd;"><tspan x="207.40625">deploy.sh</tspan></text></g><path d="M246.2,63.2C256.5,218.7 235.9,128.8 246.2,320.9" stroke="#000000" fill="none" style="stroke-width: 2;"></path><g class="actor"><path d="M366.1640625,20C425.6,23.4 426.0,16.6 450.2,20.0C451.9,47.7 448.4,30.4 450.2,63.2C412.7,59.9 412.4,66.6 366.2,63.2C367.9,30.4 364.4,52.8 366.2,20.0" stroke="#000000" fill="#ffffff" style="stroke-width: 2;"></path><text x="376.1640625" y="46.8125" style="font-size: 16px; font-family: danielbd;"><tspan x="376.1640625">本地仓库</tspan></text></g><g class="actor"><path d="M366.1640625,320.875C436.7,317.5 417.0,324.2 450.2,320.9C448.4,342.2 451.9,330.1 450.2,364.1C430.0,367.5 436.7,360.7 366.2,364.1C364.4,345.4 367.9,332.7 366.2,320.9" stroke="#000000" fill="#ffffff" style="stroke-width: 2;"></path><text x="376.1640625" y="347.6875" style="font-size: 16px; font-family: danielbd;"><tspan x="376.1640625">本地仓库</tspan></text></g><path d="M408.2,63.2C397.9,251.7 418.5,153.8 408.2,320.9" stroke="#000000" fill="none" style="stroke-width: 2;"></path><g class="actor"><path d="M470.1640625,20C511.8,16.6 532.8,23.4 555.0,20.0C556.7,52.8 553.2,37.1 555.0,63.2C483.7,66.6 541.4,59.8 470.2,63.2C471.9,35.8 468.4,30.4 470.2,20.0" stroke="#000000" fill="#ffffff" style="stroke-width: 2;"></path><text x="480.1640625" y="46.8125" style="font-size: 16px; font-family: danielbd;"><tspan x="480.1640625">网站目录</tspan></text></g><g class="actor"><path d="M470.1640625,320.875C500.5,317.5 536.7,324.3 555.0,320.9C553.2,351.6 556.7,345.5 555.0,364.1C528.3,367.5 508.0,360.7 470.2,364.1C471.9,348.2 468.4,327.8 470.2,320.9" stroke="#000000" fill="#ffffff" style="stroke-width: 2;"></path><text x="480.1640625" y="347.6875" style="font-size: 16px; font-family: danielbd;"><tspan x="480.1640625">网站目录</tspan></text></g><path d="M512.6,63.2C502.3,104.4 522.9,279.6 512.6,320.9" stroke="#000000" fill="none" style="stroke-width: 2;"></path><g class="actor"><path d="M598.9609375,20C636.8,17.2 648.5,22.8 668.6,20.0C670.3,55.2 666.9,35.3 668.6,63.2C647.2,60.4 614.1,66.0 599.0,63.2C597.2,31.6 600.7,32.1 599.0,20.0" stroke="#000000" fill="#ffffff" style="stroke-width: 2;"></path><text x="609.7734375" y="46.8125" style="font-size: 16px; font-family: danielbd;"><tspan x="608.9609375">浏览器</tspan></text></g><g class="actor"><path d="M598.9609375,320.875C625.4,318.1 657.4,323.7 668.6,320.9C666.9,339.0 670.3,355.0 668.6,364.1C617.4,361.3 647.2,366.9 599.0,364.1C600.7,350.4 597.2,331.2 599.0,320.9" stroke="#000000" fill="#ffffff" style="stroke-width: 2;"></path><text x="609.7734375" y="347.6875" style="font-size: 16px; font-family: danielbd;"><tspan x="608.9609375">浏览器</tspan></text></g><path d="M633.8,63.2C623.5,256.3 644.1,217.3 633.8,320.9" stroke="#000000" fill="none" style="stroke-width: 2;"></path><g class="signal"><text x="70.9140625" y="91.8203125" style="font-size: 16px; font-family: danielbd;"><tspan x="70.9140625">push</tspan></text><path d="M44.8,104.8C108.7,108.6 107.6,101.1 138.5,104.8" stroke="#000000" fill="none" style="stroke-width: 2; marker-end: url(&quot;#markerArrowBlock&quot;);"></path></g><g class="signal"><text x="155.34765625" y="135.4296875" style="font-size: 16px; font-family: danielbd;"><tspan x="155.34765625">webhook</tspan></text><path d="M138.5,142.4C228.9,146.7 155.7,138.1 246.2,142.4" stroke="#000000" fill="none" style="stroke-width: 2; marker-end: url(&quot;#markerArrowBlock&quot;);"></path></g><g class="note"><path d="M266.1640625,162.4375C349.8,157.6 315.5,167.3 388.2,162.4C387.1,168.9 389.2,167.5 388.2,189.3C291.4,194.1 323.9,184.4 266.2,189.3C265.1,166.7 267.2,183.3 266.2,162.4" stroke="#000000" fill="#ffffff" style="stroke-width: 2;"></path><text x="271.1640625" y="181.046875" style="font-size: 16px; font-family: danielbd;"><tspan x="271.1640625">拉取到本地仓库</tspan></text></g><g class="signal"><text x="327.1640625" y="214.25" style="font-size: 16px; font-family: danielbd;"><tspan x="327.1640625"></tspan></text><path d="M246.2,209.3C285.0,202.8 286.9,215.7 408.2,209.3" stroke="#000000" fill="none" style="stroke-width: 2; marker-end: url(&quot;#markerArrowBlock&quot;);"></path></g><g class="signal"><text x="460.3671875" y="234.25" style="font-size: 16px; font-family: danielbd;"><tspan x="460.3671875"></tspan></text><path d="M408.2,229.3C454.0,233.4 440.5,225.1 512.6,229.3" stroke="#000000" fill="none" style="stroke-width: 2; marker-end: url(&quot;#markerArrowBlock&quot;);"></path></g><g class="signal"><text x="573.171875" y="254.25" style="font-size: 16px; font-family: danielbd;"><tspan x="573.171875"></tspan></text><path d="M633.8,249.3C532.0,254.1 541.7,244.4 512.6,249.3" stroke="#000000" fill="none" style="stroke-width: 2; marker-end: url(&quot;#markerArrowBlock&quot;);"></path></g><g class="note"><path d="M532.5703125,269.25C594.3,266.0 586.8,272.5 613.8,269.3C612.5,286.7 615.0,295.8 613.8,300.9C557.3,297.6 562.5,304.1 532.6,300.9C533.8,291.3 531.3,295.8 532.6,269.3" stroke="#000000" fill="#ffffff" style="stroke-width: 2;"></path><text x="537.5703125" y="287.0625" style="font-size: 16px; font-family: danielbd;"><tspan x="537.5703125">nginx访问</tspan></text></g></svg>